<?xml version="1.0" encoding="utf-8"?>
<!-- Generator: Adobe Illustrator 14.0.0, SVG Export Plug-In . SVG Version: 6.00 Build 43363)  -->
<!DOCTYPE svg PUBLIC "-//W3C//DTD SVG 1.0//EN" "http://www.w3.org/TR/2001/REC-SVG-20010904/DTD/svg10.dtd">
<svg version="1.0" id="Layer_1" xmlns="http://www.w3.org/2000/svg" xmlns:xlink="http://www.w3.org/1999/xlink" x="0px" y="0px"
	 width="209.792px" height="152.732px" viewBox="0 0 209.792 152.732" enable-background="new 0 0 209.792 152.732"
	 xml:space="preserve">
<path d="M132.996,36.423c-13.922-2.095-27.904-3.452-40.063-4.333L60.343-0.5h-22.23L18.792,25.978l23.543-5.708l13.379,10.194
	l-0.165-0.001v17.688H42.285v17.794l-42.4,10.11l0.001,0.973l42.399,9.975v17.931H55.55v17.46l-13.215,10.069l-23.543-5.708
	l19.321,26.477h22.23l32.199-32.198c47.331-3.398,117.75-13.646,117.75-44.491C210.292,57.637,184.285,44.139,132.996,36.423z
	 M172.973,96.095c-10.896,0-19.728-8.833-19.728-19.728c0-10.896,8.832-19.729,19.728-19.729s19.728,8.833,19.728,19.729
	C192.701,87.262,183.869,96.095,172.973,96.095z"/>
</svg>
