<?xml version="1.0" encoding="utf-8"?>
<!-- Generator: Adobe Illustrator 14.0.0, SVG Export Plug-In . SVG Version: 6.00 Build 43363)  -->
<!DOCTYPE svg PUBLIC "-//W3C//DTD SVG 1.0//EN" "http://www.w3.org/TR/2001/REC-SVG-20010904/DTD/svg10.dtd">
<svg version="1.0" id="Layer_1" xmlns="http://www.w3.org/2000/svg" xmlns:xlink="http://www.w3.org/1999/xlink" x="0px" y="0px"
	 width="547px" height="43.939px" viewBox="0 0 547 43.939" enable-background="new 0 0 547 43.939" xml:space="preserve">
<g>
	<path d="M14.762,26.312c-1.737,0-2.605,0.869-2.605,2.605v10.42c0,1.448-0.608,2.577-1.824,3.387s-2.635,1.215-4.255,1.215
		c-1.622,0-3.04-0.405-4.255-1.215C0.608,41.914,0,40.785,0,39.337v-10.42c0-6.136,2.46-10.449,7.381-12.939
		c2.025-0.984,4.485-1.591,7.381-1.824h23.446c1.446,0,2.575,0.608,3.387,1.824c0.81,1.216,1.215,2.635,1.215,4.255
		c0,1.622-0.405,3.04-1.215,4.255c-0.812,1.215-1.94,1.823-3.387,1.823H14.762z M36.038,43.766c-1.68,0-3.113-0.594-4.299-1.78
		c-1.187-1.186-1.78-2.619-1.78-4.298c0-1.679,0.593-3.111,1.78-4.298c1.186-1.186,2.619-1.78,4.299-1.78
		c1.678,0,3.111,0.594,4.298,1.78c1.186,1.187,1.78,2.62,1.78,4.298c0,1.68-0.594,3.112-1.78,4.298
		C39.148,43.172,37.716,43.766,36.038,43.766z"/>
	<path d="M75.547,43.766H62.521c-2.896-0.232-5.355-0.84-7.381-1.824c-4.921-2.488-7.381-6.802-7.381-12.939v-10.42
		c0-1.446,0.608-2.575,1.824-3.387c1.215-0.81,2.633-1.215,4.255-1.215c1.62,0,3.039,0.406,4.255,1.215
		c1.216,0.812,1.824,1.94,1.824,3.387v10.42c0,1.737,0.868,2.605,2.605,2.605h13.026c1.736,0,2.605-0.869,2.605-2.605v-10.42
		c0-1.446,0.608-2.575,1.824-3.387c1.215-0.81,2.633-1.215,4.255-1.215c1.62,0,3.039,0.406,4.255,1.215
		c1.216,0.812,1.824,1.94,1.824,3.387v10.42c-0.232,2.896-0.84,5.355-1.824,7.381C85.996,41.306,81.683,43.766,75.547,43.766z"/>
	<path d="M127.648,43.766H99.86c-1.448,0-2.577-0.608-3.387-1.824s-1.216-2.634-1.216-4.255c0-1.62,0.406-3.04,1.216-4.255
		c0.81-1.215,1.939-1.823,3.387-1.823h27.788c1.737,0,2.605-0.882,2.605-2.648c0-1.766-0.868-2.649-2.605-2.649h-17.368
		c-6.137,0-10.45-2.46-12.938-7.381c-0.984-2.026-1.592-4.486-1.824-7.381V4.603c0-1.446,0.608-2.575,1.824-3.387
		C98.558,0.406,99.976,0,101.597,0c1.62,0,3.039,0.406,4.255,1.216c1.216,0.812,1.824,1.94,1.824,3.387v6.947
		c0,1.737,0.868,2.605,2.605,2.605h17.368c2.894,0.233,5.354,0.843,7.381,1.829c4.92,2.497,7.381,6.822,7.381,12.977
		c0,6.154-2.461,10.48-7.381,12.977C133.002,42.923,130.542,43.533,127.648,43.766z"/>
	<path d="M179.75,43.766h-27.788c-1.448,0-2.577-0.608-3.387-1.824s-1.216-2.634-1.216-4.255c0-1.62,0.406-3.04,1.216-4.255
		c0.81-1.215,1.939-1.823,3.387-1.823h27.788c1.737,0,2.605-0.882,2.605-2.648c0-1.766-0.868-2.649-2.605-2.649h-17.368
		c-6.137,0-10.45-2.46-12.938-7.381c-0.984-2.026-1.592-4.486-1.824-7.381V4.603c0-1.446,0.608-2.575,1.824-3.387
		C150.659,0.406,152.077,0,153.699,0c1.62,0,3.039,0.406,4.255,1.216c1.216,0.812,1.824,1.94,1.824,3.387v6.947
		c0,1.737,0.868,2.605,2.605,2.605h17.368c2.894,0.233,5.354,0.843,7.381,1.829c4.92,2.497,7.381,6.822,7.381,12.977
		c0,6.154-2.461,10.48-7.381,12.977C185.104,42.923,182.644,43.533,179.75,43.766z"/>
	<path d="M214.484,43.766c-2.896-0.233-5.355-0.843-7.381-1.829c-4.921-2.497-7.381-6.822-7.381-12.977
		c0-6.155,2.46-10.48,7.381-12.977c2.025-0.986,4.485-1.596,7.381-1.829h4.342c6.136,0,10.449,2.474,12.939,7.418
		c0.984,2.037,1.591,4.509,1.824,7.418v2.619h8.684c1.446,0,2.575,0.608,3.387,1.823c0.81,1.216,1.216,2.635,1.216,4.255
		c0,1.621-0.406,3.039-1.216,4.255c-0.812,1.216-1.94,1.824-3.387,1.824H214.484z M221.431,28.96c0-1.766-0.869-2.649-2.605-2.649
		h-4.342c-1.737,0-2.605,0.883-2.605,2.649c0,1.767,0.868,2.648,2.605,2.648h6.947V28.96z"/>
	<path d="M266.585,26.312c-1.737,0-2.605,0.869-2.605,2.605v10.42c0,1.448-0.608,2.577-1.824,3.387s-2.635,1.215-4.255,1.215
		c-1.622,0-3.04-0.405-4.255-1.215c-1.216-0.81-1.824-1.939-1.824-3.387v-10.42c0-6.136,2.46-10.449,7.381-12.939
		c2.025-0.984,4.485-1.591,7.381-1.824h23.446c1.446,0,2.575,0.608,3.387,1.824c0.81,1.216,1.215,2.635,1.215,4.255
		c0,1.622-0.405,3.04-1.215,4.255c-0.812,1.215-1.94,1.823-3.387,1.823H266.585z M287.861,43.766c-1.68,0-3.113-0.594-4.299-1.78
		c-1.187-1.186-1.78-2.619-1.78-4.298c0-1.679,0.593-3.111,1.78-4.298c1.186-1.186,2.619-1.78,4.299-1.78
		c1.678,0,3.111,0.594,4.298,1.78c1.186,1.187,1.78,2.62,1.78,4.298c0,1.68-0.594,3.112-1.78,4.298
		C290.972,43.172,289.539,43.766,287.861,43.766z"/>
	<path d="M327.371,43.766h-13.025c-2.896-0.233-5.355-0.843-7.381-1.829c-4.921-2.497-7.381-6.822-7.381-12.977
		c0-6.155,2.46-10.48,7.381-12.977c2.025-0.986,4.485-1.596,7.381-1.829h13.025c2.895,0.233,5.354,0.843,7.382,1.829
		c4.92,2.497,7.381,6.822,7.381,12.977c0,6.154-2.461,10.48-7.381,12.977C332.725,42.923,330.265,43.533,327.371,43.766z
		 M327.371,26.312h-13.025c-1.737,0-2.605,0.883-2.605,2.649c0,1.767,0.868,2.648,2.605,2.648h13.025
		c1.737,0,2.605-0.882,2.605-2.648C329.976,27.195,329.108,26.312,327.371,26.312z"/>
	<path d="M362.104,43.766c-2.896-0.233-5.355-0.843-7.381-1.829c-4.922-2.497-7.382-6.822-7.382-12.977
		c0-6.155,2.46-10.48,7.382-12.977c2.025-0.986,4.485-1.596,7.381-1.829h23.446c1.446,0,2.575,0.608,3.387,1.824
		c0.81,1.216,1.216,2.635,1.216,4.255c0,1.622-0.406,3.04-1.216,4.255c-0.812,1.215-1.94,1.823-3.387,1.823h-23.446
		c-1.736,0-2.605,0.883-2.605,2.649c0,1.767,0.869,2.648,2.605,2.648h23.446c1.446,0,2.575,0.608,3.387,1.823
		c0.81,1.216,1.216,2.635,1.216,4.255c0,1.621-0.406,3.039-1.216,4.255c-0.812,1.216-1.94,1.824-3.387,1.824H362.104z"/>
	<path d="M430.704,43.766c-1.969,0-3.314-0.16-4.038-0.478c-0.725-0.32-1.81-1.205-3.256-2.656l-12.157-12.18
		c-1.506-1.509-2.952-2.292-4.342-2.35c-7.237-1.159-11.171-6.002-11.81-14.53v-6.96c0-1.449,0.608-2.581,1.824-3.394
		C398.141,0.407,399.559,0,401.18,0c1.62,0,3.039,0.406,4.255,1.216c1.216,0.812,1.823,1.94,1.823,3.387v6.947
		c0,1.737,0.869,2.605,2.605,2.605h27.788c1.446,0,2.575,0.608,3.387,1.824c0.81,1.216,1.216,2.635,1.216,4.255
		c0,1.622-0.406,3.04-1.216,4.255c-0.812,1.215-1.94,1.823-3.387,1.823H427.23c-0.638,0-0.781,0.207-0.434,0.618l3.3,3.267
		c1.331,0.941,2.691,1.413,4.081,1.413h3.474c1.446,0,2.575,0.608,3.387,1.823c0.81,1.216,1.216,2.635,1.216,4.255
		c0,1.621-0.406,3.039-1.216,4.255c-0.812,1.216-1.94,1.824-3.387,1.824H430.704z M401.18,43.766c-1.679,0-3.112-0.594-4.298-1.78
		c-1.186-1.186-1.78-2.619-1.78-4.298c0-1.679,0.595-3.111,1.78-4.298c1.187-1.186,2.619-1.78,4.298-1.78
		c1.679,0,3.111,0.594,4.299,1.78c1.186,1.187,1.779,2.62,1.779,4.298c0,1.68-0.594,3.112-1.779,4.298
		C404.291,43.172,402.858,43.766,401.18,43.766z"/>
	<path d="M461.965,43.766c-2.896-0.233-5.355-0.843-7.381-1.829c-4.922-2.497-7.382-6.822-7.382-12.977
		c0-6.155,2.46-10.48,7.382-12.977c2.025-0.986,4.485-1.596,7.381-1.829h4.342c6.136,0,10.449,2.474,12.938,7.418
		c0.984,2.037,1.592,4.509,1.824,7.418v2.619h8.684c1.446,0,2.575,0.608,3.387,1.823c0.81,1.216,1.216,2.635,1.216,4.255
		c0,1.621-0.406,3.039-1.216,4.255c-0.812,1.216-1.94,1.824-3.387,1.824H461.965z M468.912,28.96c0-1.766-0.868-2.649-2.605-2.649
		h-4.342c-1.736,0-2.605,0.883-2.605,2.649c0,1.767,0.869,2.648,2.605,2.648h6.947V28.96z"/>
	<path d="M503.646,26.312c-1.448,0-2.577-0.608-3.387-1.823c-0.811-1.216-1.216-2.634-1.216-4.255c0-1.62,0.405-3.039,1.216-4.255
		c0.81-1.216,1.938-1.824,3.387-1.824h38.208c1.446,0,2.575,0.608,3.387,1.824c0.81,1.216,1.216,2.635,1.216,4.255
		c0,1.622-0.406,3.04-1.216,4.255c-0.812,1.215-1.94,1.823-3.387,1.823H503.646z M522.75,43.766c-1.68,0-3.112-0.594-4.298-1.78
		c-1.188-1.186-1.78-2.619-1.78-4.298c0-1.679,0.593-3.111,1.78-4.298c1.186-1.186,2.618-1.78,4.298-1.78
		c1.679,0,3.111,0.594,4.299,1.78c1.186,1.187,1.78,2.62,1.78,4.298c0,1.68-0.595,3.112-1.78,4.298
		C525.861,43.172,524.429,43.766,522.75,43.766z"/>
</g>
</svg>
